<mxfile host="app.diagrams.net" modified="2023-12-15T16:04:08.623Z" agent="Mozilla/5.0 (Windows NT 10.0; Win64; x64) AppleWebKit/537.36 (KHTML, like Gecko) Chrome/120.0.0.0 Safari/537.36" etag="G_vFsmCxgTlouBQTgMKJ" version="22.1.9" type="google">
  <diagram id="C5RBs43oDa-KdzZeNtuy" name="Page-1">
    <mxGraphModel grid="1" page="1" gridSize="10" guides="1" tooltips="1" connect="1" arrows="1" fold="1" pageScale="1" pageWidth="827" pageHeight="1169" math="0" shadow="0">
      <root>
        <mxCell id="WIyWlLk6GJQsqaUBKTNV-0" />
        <mxCell id="WIyWlLk6GJQsqaUBKTNV-1" parent="WIyWlLk6GJQsqaUBKTNV-0" />
        <mxCell id="BAt-kX5z2OFKXPIR_hLi-12" style="rounded=0;orthogonalLoop=1;jettySize=auto;html=1;exitX=0.329;exitY=1.016;exitDx=0;exitDy=0;exitPerimeter=0;entryX=0.648;entryY=0.023;entryDx=0;entryDy=0;endArrow=blockThin;endFill=1;dashed=1;entryPerimeter=0;" edge="1" parent="WIyWlLk6GJQsqaUBKTNV-1" source="BAt-kX5z2OFKXPIR_hLi-32" target="BAt-kX5z2OFKXPIR_hLi-2">
          <mxGeometry relative="1" as="geometry" />
        </mxCell>
        <mxCell id="-BmHojvlKjboQncOSD9x-24" value="&amp;lt;&amp;lt;extend&amp;gt;&amp;gt;" style="edgeLabel;html=1;align=center;verticalAlign=middle;resizable=0;points=[];" connectable="0" vertex="1" parent="BAt-kX5z2OFKXPIR_hLi-12">
          <mxGeometry x="-0.2279" y="-1" relative="1" as="geometry">
            <mxPoint as="offset" />
          </mxGeometry>
        </mxCell>
        <mxCell id="BAt-kX5z2OFKXPIR_hLi-13" style="rounded=0;orthogonalLoop=1;jettySize=auto;html=1;exitX=0.5;exitY=0.5;exitDx=0;exitDy=0;exitPerimeter=0;entryX=0;entryY=1;entryDx=0;entryDy=0;endArrow=none;endFill=0;" edge="1" parent="WIyWlLk6GJQsqaUBKTNV-1" source="BAt-kX5z2OFKXPIR_hLi-0" target="BAt-kX5z2OFKXPIR_hLi-3">
          <mxGeometry relative="1" as="geometry" />
        </mxCell>
        <mxCell id="BAt-kX5z2OFKXPIR_hLi-14" style="rounded=0;orthogonalLoop=1;jettySize=auto;html=1;exitX=0.5;exitY=0.5;exitDx=0;exitDy=0;exitPerimeter=0;entryX=0;entryY=1;entryDx=0;entryDy=0;endArrow=none;endFill=0;" edge="1" parent="WIyWlLk6GJQsqaUBKTNV-1" source="BAt-kX5z2OFKXPIR_hLi-0" target="BAt-kX5z2OFKXPIR_hLi-4">
          <mxGeometry relative="1" as="geometry" />
        </mxCell>
        <mxCell id="BAt-kX5z2OFKXPIR_hLi-15" style="rounded=0;orthogonalLoop=1;jettySize=auto;html=1;exitX=0.5;exitY=0.5;exitDx=0;exitDy=0;exitPerimeter=0;entryX=0;entryY=0.5;entryDx=0;entryDy=0;endArrow=none;endFill=0;" edge="1" parent="WIyWlLk6GJQsqaUBKTNV-1" source="BAt-kX5z2OFKXPIR_hLi-0" target="BAt-kX5z2OFKXPIR_hLi-5">
          <mxGeometry relative="1" as="geometry" />
        </mxCell>
        <mxCell id="BAt-kX5z2OFKXPIR_hLi-16" style="rounded=0;orthogonalLoop=1;jettySize=auto;html=1;entryX=0;entryY=0.5;entryDx=0;entryDy=0;exitX=1;exitY=0;exitDx=0;exitDy=0;endArrow=blockThin;endFill=1;startArrow=none;startFill=0;dashed=1;" edge="1" parent="WIyWlLk6GJQsqaUBKTNV-1" source="BAt-kX5z2OFKXPIR_hLi-5" target="BAt-kX5z2OFKXPIR_hLi-6">
          <mxGeometry relative="1" as="geometry" />
        </mxCell>
        <mxCell id="-BmHojvlKjboQncOSD9x-13" value="&amp;lt;&amp;lt;extend&amp;gt;&amp;gt;" style="edgeLabel;html=1;align=center;verticalAlign=middle;resizable=0;points=[];" connectable="0" vertex="1" parent="BAt-kX5z2OFKXPIR_hLi-16">
          <mxGeometry x="-0.0591" y="-2" relative="1" as="geometry">
            <mxPoint x="6" y="-4" as="offset" />
          </mxGeometry>
        </mxCell>
        <mxCell id="BAt-kX5z2OFKXPIR_hLi-49" style="rounded=0;orthogonalLoop=1;jettySize=auto;html=1;exitX=0.5;exitY=0.5;exitDx=0;exitDy=0;exitPerimeter=0;entryX=0;entryY=0.5;entryDx=0;entryDy=0;endArrow=none;endFill=0;" edge="1" parent="WIyWlLk6GJQsqaUBKTNV-1" source="BAt-kX5z2OFKXPIR_hLi-0" target="BAt-kX5z2OFKXPIR_hLi-43">
          <mxGeometry relative="1" as="geometry" />
        </mxCell>
        <mxCell id="BAt-kX5z2OFKXPIR_hLi-110" style="rounded=0;orthogonalLoop=1;jettySize=auto;html=1;exitX=0.5;exitY=0.5;exitDx=0;exitDy=0;exitPerimeter=0;entryX=0;entryY=0.5;entryDx=0;entryDy=0;endArrow=none;endFill=0;" edge="1" parent="WIyWlLk6GJQsqaUBKTNV-1" source="BAt-kX5z2OFKXPIR_hLi-0" target="BAt-kX5z2OFKXPIR_hLi-44">
          <mxGeometry relative="1" as="geometry" />
        </mxCell>
        <mxCell id="-BmHojvlKjboQncOSD9x-23" style="rounded=0;orthogonalLoop=1;jettySize=auto;html=1;exitX=0.5;exitY=0.5;exitDx=0;exitDy=0;exitPerimeter=0;entryX=0.5;entryY=0;entryDx=0;entryDy=0;endArrow=none;endFill=0;" edge="1" parent="WIyWlLk6GJQsqaUBKTNV-1" source="BAt-kX5z2OFKXPIR_hLi-0" target="BAt-kX5z2OFKXPIR_hLi-45">
          <mxGeometry relative="1" as="geometry" />
        </mxCell>
        <mxCell id="BAt-kX5z2OFKXPIR_hLi-0" value="Khách hàng" style="shape=umlActor;verticalLabelPosition=bottom;verticalAlign=top;html=1;outlineConnect=0;shadow=0;fillStyle=auto;labelBackgroundColor=none;labelBorderColor=none;fillColor=#0ceb00;strokeColor=#3ca300;" vertex="1" parent="WIyWlLk6GJQsqaUBKTNV-1">
          <mxGeometry x="140" y="460" width="30" height="60" as="geometry" />
        </mxCell>
        <mxCell id="BAt-kX5z2OFKXPIR_hLi-2" value="Đăng ký" style="ellipse;whiteSpace=wrap;html=1;" vertex="1" parent="WIyWlLk6GJQsqaUBKTNV-1">
          <mxGeometry x="670" y="700" width="120" height="50" as="geometry" />
        </mxCell>
        <mxCell id="BAt-kX5z2OFKXPIR_hLi-3" value="Xem danh sách sản phẩm" style="ellipse;whiteSpace=wrap;html=1;" vertex="1" parent="WIyWlLk6GJQsqaUBKTNV-1">
          <mxGeometry x="390" y="250" width="140" height="50" as="geometry" />
        </mxCell>
        <mxCell id="BAt-kX5z2OFKXPIR_hLi-4" value="Tìm kiếm sản phẩm" style="ellipse;whiteSpace=wrap;html=1;" vertex="1" parent="WIyWlLk6GJQsqaUBKTNV-1">
          <mxGeometry x="480" y="320" width="120" height="50" as="geometry" />
        </mxCell>
        <mxCell id="BAt-kX5z2OFKXPIR_hLi-5" value="Xem chi tiết sản phẩm" style="ellipse;whiteSpace=wrap;html=1;" vertex="1" parent="WIyWlLk6GJQsqaUBKTNV-1">
          <mxGeometry x="480" y="400" width="120" height="50" as="geometry" />
        </mxCell>
        <mxCell id="BAt-kX5z2OFKXPIR_hLi-6" value="Xem bình luận" style="ellipse;whiteSpace=wrap;html=1;" vertex="1" parent="WIyWlLk6GJQsqaUBKTNV-1">
          <mxGeometry x="680" y="350" width="120" height="50" as="geometry" />
        </mxCell>
        <mxCell id="BAt-kX5z2OFKXPIR_hLi-38" style="rounded=0;orthogonalLoop=1;jettySize=auto;html=1;exitX=0.5;exitY=1;exitDx=0;exitDy=0;entryX=0.672;entryY=0.043;entryDx=0;entryDy=0;endArrow=block;endFill=0;entryPerimeter=0;" edge="1" parent="WIyWlLk6GJQsqaUBKTNV-1" source="BAt-kX5z2OFKXPIR_hLi-7" target="BAt-kX5z2OFKXPIR_hLi-4">
          <mxGeometry relative="1" as="geometry" />
        </mxCell>
        <mxCell id="BAt-kX5z2OFKXPIR_hLi-7" value="Tìm theo tên" style="ellipse;whiteSpace=wrap;html=1;" vertex="1" parent="WIyWlLk6GJQsqaUBKTNV-1">
          <mxGeometry x="540" y="210" width="120" height="50" as="geometry" />
        </mxCell>
        <mxCell id="BAt-kX5z2OFKXPIR_hLi-39" style="rounded=0;orthogonalLoop=1;jettySize=auto;html=1;exitX=0;exitY=1;exitDx=0;exitDy=0;entryX=1;entryY=0;entryDx=0;entryDy=0;endArrow=block;endFill=0;" edge="1" parent="WIyWlLk6GJQsqaUBKTNV-1" source="BAt-kX5z2OFKXPIR_hLi-9" target="BAt-kX5z2OFKXPIR_hLi-4">
          <mxGeometry relative="1" as="geometry">
            <mxPoint x="620" y="300" as="targetPoint" />
          </mxGeometry>
        </mxCell>
        <mxCell id="BAt-kX5z2OFKXPIR_hLi-9" value="Tìm theo loại" style="ellipse;whiteSpace=wrap;html=1;" vertex="1" parent="WIyWlLk6GJQsqaUBKTNV-1">
          <mxGeometry x="661" y="224" width="120" height="50" as="geometry" />
        </mxCell>
        <mxCell id="BAt-kX5z2OFKXPIR_hLi-40" style="rounded=0;orthogonalLoop=1;jettySize=auto;html=1;exitX=0;exitY=0.5;exitDx=0;exitDy=0;entryX=1;entryY=0.5;entryDx=0;entryDy=0;endArrow=block;endFill=0;" edge="1" parent="WIyWlLk6GJQsqaUBKTNV-1" source="BAt-kX5z2OFKXPIR_hLi-10" target="BAt-kX5z2OFKXPIR_hLi-4">
          <mxGeometry relative="1" as="geometry" />
        </mxCell>
        <mxCell id="BAt-kX5z2OFKXPIR_hLi-10" value="Tìm theo giá" style="ellipse;whiteSpace=wrap;html=1;" vertex="1" parent="WIyWlLk6GJQsqaUBKTNV-1">
          <mxGeometry x="730" y="270" width="120" height="50" as="geometry" />
        </mxCell>
        <mxCell id="BAt-kX5z2OFKXPIR_hLi-32" value="Đăng nhập" style="ellipse;whiteSpace=wrap;html=1;" vertex="1" parent="WIyWlLk6GJQsqaUBKTNV-1">
          <mxGeometry x="780" y="550" width="120" height="50" as="geometry" />
        </mxCell>
        <mxCell id="BAt-kX5z2OFKXPIR_hLi-34" style="rounded=0;orthogonalLoop=1;jettySize=auto;html=1;exitX=0.5;exitY=1;exitDx=0;exitDy=0;entryX=0.5;entryY=0;entryDx=0;entryDy=0;dashed=1;startArrow=blockThin;startFill=1;endArrow=none;endFill=0;" edge="1" parent="WIyWlLk6GJQsqaUBKTNV-1" source="BAt-kX5z2OFKXPIR_hLi-33" target="BAt-kX5z2OFKXPIR_hLi-32">
          <mxGeometry relative="1" as="geometry" />
        </mxCell>
        <mxCell id="BAt-kX5z2OFKXPIR_hLi-63" value="&amp;lt;&amp;lt;extend&amp;gt;&amp;gt;" style="edgeLabel;html=1;align=center;verticalAlign=middle;resizable=0;points=[];" connectable="0" vertex="1" parent="BAt-kX5z2OFKXPIR_hLi-34">
          <mxGeometry x="-0.0263" y="-1" relative="1" as="geometry">
            <mxPoint as="offset" />
          </mxGeometry>
        </mxCell>
        <mxCell id="BAt-kX5z2OFKXPIR_hLi-33" value="Đăng xuất" style="ellipse;whiteSpace=wrap;html=1;" vertex="1" parent="WIyWlLk6GJQsqaUBKTNV-1">
          <mxGeometry x="840" y="390" width="120" height="50" as="geometry" />
        </mxCell>
        <mxCell id="BAt-kX5z2OFKXPIR_hLi-53" style="rounded=0;orthogonalLoop=1;jettySize=auto;html=1;exitX=1;exitY=0.5;exitDx=0;exitDy=0;entryX=0;entryY=0;entryDx=0;entryDy=0;dashed=1;endArrow=blockThin;endFill=1;" edge="1" parent="WIyWlLk6GJQsqaUBKTNV-1" source="BAt-kX5z2OFKXPIR_hLi-42" target="BAt-kX5z2OFKXPIR_hLi-32">
          <mxGeometry relative="1" as="geometry" />
        </mxCell>
        <mxCell id="BAt-kX5z2OFKXPIR_hLi-58" value="&amp;lt;&amp;lt;include&amp;gt;&amp;gt;" style="edgeLabel;html=1;align=center;verticalAlign=middle;resizable=0;points=[];" connectable="0" vertex="1" parent="BAt-kX5z2OFKXPIR_hLi-53">
          <mxGeometry x="-0.0334" y="-1" relative="1" as="geometry">
            <mxPoint as="offset" />
          </mxGeometry>
        </mxCell>
        <mxCell id="-BmHojvlKjboQncOSD9x-4" style="rounded=0;orthogonalLoop=1;jettySize=auto;html=1;exitX=0.5;exitY=0;exitDx=0;exitDy=0;entryX=0.5;entryY=1;entryDx=0;entryDy=0;dashed=1;endArrow=none;endFill=0;startArrow=blockThin;startFill=1;" edge="1" parent="WIyWlLk6GJQsqaUBKTNV-1" source="BAt-kX5z2OFKXPIR_hLi-42" target="BAt-kX5z2OFKXPIR_hLi-5">
          <mxGeometry relative="1" as="geometry" />
        </mxCell>
        <mxCell id="-BmHojvlKjboQncOSD9x-6" value="&amp;lt;&amp;lt;extend&amp;gt;&amp;gt;" style="edgeLabel;html=1;align=center;verticalAlign=middle;resizable=0;points=[];" connectable="0" vertex="1" parent="-BmHojvlKjboQncOSD9x-4">
          <mxGeometry x="-0.1388" relative="1" as="geometry">
            <mxPoint x="3" y="-11" as="offset" />
          </mxGeometry>
        </mxCell>
        <mxCell id="BAt-kX5z2OFKXPIR_hLi-42" value="Thêm sản phẩm vào giỏ hàng" style="ellipse;whiteSpace=wrap;html=1;" vertex="1" parent="WIyWlLk6GJQsqaUBKTNV-1">
          <mxGeometry x="480" y="505" width="120" height="50" as="geometry" />
        </mxCell>
        <mxCell id="BAt-kX5z2OFKXPIR_hLi-54" style="rounded=0;orthogonalLoop=1;jettySize=auto;html=1;exitX=1;exitY=0.5;exitDx=0;exitDy=0;entryX=0;entryY=1;entryDx=0;entryDy=0;dashed=1;endArrow=blockThin;endFill=1;" edge="1" parent="WIyWlLk6GJQsqaUBKTNV-1" source="BAt-kX5z2OFKXPIR_hLi-43" target="BAt-kX5z2OFKXPIR_hLi-32">
          <mxGeometry relative="1" as="geometry" />
        </mxCell>
        <mxCell id="BAt-kX5z2OFKXPIR_hLi-59" value="&amp;lt;&amp;lt;include&amp;gt;&amp;gt;" style="edgeLabel;html=1;align=center;verticalAlign=middle;resizable=0;points=[];" connectable="0" vertex="1" parent="BAt-kX5z2OFKXPIR_hLi-54">
          <mxGeometry x="-0.1785" y="2" relative="1" as="geometry">
            <mxPoint as="offset" />
          </mxGeometry>
        </mxCell>
        <mxCell id="-BmHojvlKjboQncOSD9x-14" style="rounded=0;orthogonalLoop=1;jettySize=auto;html=1;exitX=0.5;exitY=1;exitDx=0;exitDy=0;entryX=0.5;entryY=0;entryDx=0;entryDy=0;dashed=1;" edge="1" parent="WIyWlLk6GJQsqaUBKTNV-1" source="BAt-kX5z2OFKXPIR_hLi-43" target="BAt-kX5z2OFKXPIR_hLi-46">
          <mxGeometry relative="1" as="geometry" />
        </mxCell>
        <mxCell id="-BmHojvlKjboQncOSD9x-15" value="&amp;lt;&amp;lt;extend&amp;gt;&amp;gt;" style="edgeLabel;html=1;align=center;verticalAlign=middle;resizable=0;points=[];" connectable="0" vertex="1" parent="-BmHojvlKjboQncOSD9x-14">
          <mxGeometry x="0.0317" relative="1" as="geometry">
            <mxPoint as="offset" />
          </mxGeometry>
        </mxCell>
        <mxCell id="BAt-kX5z2OFKXPIR_hLi-43" value="Quản lý giỏ hàng" style="ellipse;whiteSpace=wrap;html=1;" vertex="1" parent="WIyWlLk6GJQsqaUBKTNV-1">
          <mxGeometry x="466" y="680" width="120" height="50" as="geometry" />
        </mxCell>
        <mxCell id="BAt-kX5z2OFKXPIR_hLi-55" style="rounded=0;orthogonalLoop=1;jettySize=auto;html=1;exitX=1;exitY=0.5;exitDx=0;exitDy=0;dashed=1;endArrow=blockThin;endFill=1;entryX=0;entryY=0.5;entryDx=0;entryDy=0;" edge="1" parent="WIyWlLk6GJQsqaUBKTNV-1" source="BAt-kX5z2OFKXPIR_hLi-44" target="BAt-kX5z2OFKXPIR_hLi-32">
          <mxGeometry relative="1" as="geometry">
            <mxPoint x="780" y="570" as="targetPoint" />
          </mxGeometry>
        </mxCell>
        <mxCell id="BAt-kX5z2OFKXPIR_hLi-60" value="&amp;lt;&amp;lt;include&amp;gt;&amp;gt;" style="edgeLabel;html=1;align=center;verticalAlign=middle;resizable=0;points=[];" connectable="0" vertex="1" parent="BAt-kX5z2OFKXPIR_hLi-55">
          <mxGeometry x="-0.1346" y="1" relative="1" as="geometry">
            <mxPoint as="offset" />
          </mxGeometry>
        </mxCell>
        <mxCell id="BAt-kX5z2OFKXPIR_hLi-44" value="Xem đơn hàng" style="ellipse;whiteSpace=wrap;html=1;" vertex="1" parent="WIyWlLk6GJQsqaUBKTNV-1">
          <mxGeometry x="480" y="590" width="120" height="50" as="geometry" />
        </mxCell>
        <mxCell id="BAt-kX5z2OFKXPIR_hLi-56" style="rounded=0;orthogonalLoop=1;jettySize=auto;html=1;entryX=0;entryY=0;entryDx=0;entryDy=0;dashed=1;endArrow=blockThin;endFill=1;exitX=1;exitY=1;exitDx=0;exitDy=0;" edge="1" parent="WIyWlLk6GJQsqaUBKTNV-1" source="BAt-kX5z2OFKXPIR_hLi-45" target="BAt-kX5z2OFKXPIR_hLi-46">
          <mxGeometry relative="1" as="geometry">
            <mxPoint x="359" y="743" as="sourcePoint" />
          </mxGeometry>
        </mxCell>
        <mxCell id="BAt-kX5z2OFKXPIR_hLi-61" value="&amp;lt;&amp;lt;include&amp;gt;&amp;gt;" style="edgeLabel;html=1;align=center;verticalAlign=middle;resizable=0;points=[];" connectable="0" vertex="1" parent="BAt-kX5z2OFKXPIR_hLi-56">
          <mxGeometry x="-0.2247" y="1" relative="1" as="geometry">
            <mxPoint x="-2" y="3" as="offset" />
          </mxGeometry>
        </mxCell>
        <mxCell id="BAt-kX5z2OFKXPIR_hLi-45" value="Bình luận" style="ellipse;whiteSpace=wrap;html=1;" vertex="1" parent="WIyWlLk6GJQsqaUBKTNV-1">
          <mxGeometry x="280" y="700" width="120" height="50" as="geometry" />
        </mxCell>
        <mxCell id="BAt-kX5z2OFKXPIR_hLi-46" value="Mua hàng" style="ellipse;whiteSpace=wrap;html=1;" vertex="1" parent="WIyWlLk6GJQsqaUBKTNV-1">
          <mxGeometry x="466" y="800" width="120" height="50" as="geometry" />
        </mxCell>
        <mxCell id="BAt-kX5z2OFKXPIR_hLi-79" style="rounded=0;orthogonalLoop=1;jettySize=auto;html=1;exitX=0;exitY=0.5;exitDx=0;exitDy=0;entryX=1;entryY=0.5;entryDx=0;entryDy=0;dashed=1;endArrow=blockThin;endFill=1;" edge="1" parent="WIyWlLk6GJQsqaUBKTNV-1" source="BAt-kX5z2OFKXPIR_hLi-47" target="BAt-kX5z2OFKXPIR_hLi-32">
          <mxGeometry relative="1" as="geometry" />
        </mxCell>
        <mxCell id="BAt-kX5z2OFKXPIR_hLi-112" value="&amp;lt;&amp;lt;include&amp;gt;&amp;gt;" style="edgeLabel;html=1;align=center;verticalAlign=middle;resizable=0;points=[];" connectable="0" vertex="1" parent="BAt-kX5z2OFKXPIR_hLi-79">
          <mxGeometry x="0.1061" y="1" relative="1" as="geometry">
            <mxPoint as="offset" />
          </mxGeometry>
        </mxCell>
        <mxCell id="BAt-kX5z2OFKXPIR_hLi-47" value="Quản lý quyền" style="ellipse;whiteSpace=wrap;html=1;" vertex="1" parent="WIyWlLk6GJQsqaUBKTNV-1">
          <mxGeometry x="1070" y="500" width="120" height="50" as="geometry" />
        </mxCell>
        <mxCell id="BAt-kX5z2OFKXPIR_hLi-74" style="rounded=0;orthogonalLoop=1;jettySize=auto;html=1;exitX=0.5;exitY=0.5;exitDx=0;exitDy=0;exitPerimeter=0;entryX=1;entryY=0.5;entryDx=0;entryDy=0;endArrow=none;endFill=0;" edge="1" parent="WIyWlLk6GJQsqaUBKTNV-1" source="BAt-kX5z2OFKXPIR_hLi-67" target="BAt-kX5z2OFKXPIR_hLi-47">
          <mxGeometry relative="1" as="geometry" />
        </mxCell>
        <mxCell id="BAt-kX5z2OFKXPIR_hLi-75" style="rounded=0;orthogonalLoop=1;jettySize=auto;html=1;exitX=0.5;exitY=0.5;exitDx=0;exitDy=0;exitPerimeter=0;entryX=1;entryY=0.5;entryDx=0;entryDy=0;endArrow=none;endFill=0;" edge="1" parent="WIyWlLk6GJQsqaUBKTNV-1" source="BAt-kX5z2OFKXPIR_hLi-67" target="BAt-kX5z2OFKXPIR_hLi-69">
          <mxGeometry relative="1" as="geometry" />
        </mxCell>
        <mxCell id="BAt-kX5z2OFKXPIR_hLi-76" style="rounded=0;orthogonalLoop=1;jettySize=auto;html=1;exitX=0.5;exitY=0.5;exitDx=0;exitDy=0;exitPerimeter=0;entryX=1;entryY=0.5;entryDx=0;entryDy=0;endArrow=none;endFill=0;" edge="1" parent="WIyWlLk6GJQsqaUBKTNV-1" source="BAt-kX5z2OFKXPIR_hLi-67" target="BAt-kX5z2OFKXPIR_hLi-71">
          <mxGeometry relative="1" as="geometry" />
        </mxCell>
        <mxCell id="BAt-kX5z2OFKXPIR_hLi-77" style="rounded=0;orthogonalLoop=1;jettySize=auto;html=1;exitX=0.5;exitY=0.5;exitDx=0;exitDy=0;exitPerimeter=0;entryX=1;entryY=0.5;entryDx=0;entryDy=0;edgeStyle=orthogonalEdgeStyle;endArrow=none;endFill=0;" edge="1" parent="WIyWlLk6GJQsqaUBKTNV-1" source="BAt-kX5z2OFKXPIR_hLi-67" target="BAt-kX5z2OFKXPIR_hLi-72">
          <mxGeometry relative="1" as="geometry">
            <Array as="points">
              <mxPoint x="1295" y="530" />
              <mxPoint x="1330" y="530" />
              <mxPoint x="1330" y="835" />
            </Array>
          </mxGeometry>
        </mxCell>
        <mxCell id="BAt-kX5z2OFKXPIR_hLi-78" style="rounded=0;orthogonalLoop=1;jettySize=auto;html=1;exitX=0.5;exitY=0.5;exitDx=0;exitDy=0;exitPerimeter=0;entryX=0.5;entryY=1;entryDx=0;entryDy=0;endArrow=none;endFill=0;" edge="1" parent="WIyWlLk6GJQsqaUBKTNV-1" source="BAt-kX5z2OFKXPIR_hLi-67" target="BAt-kX5z2OFKXPIR_hLi-73">
          <mxGeometry relative="1" as="geometry" />
        </mxCell>
        <mxCell id="BAt-kX5z2OFKXPIR_hLi-67" value="Quản lý" style="shape=umlActor;verticalLabelPosition=bottom;verticalAlign=top;html=1;outlineConnect=0;fillColor=#f8cecc;strokeColor=#ff0800;" vertex="1" parent="WIyWlLk6GJQsqaUBKTNV-1">
          <mxGeometry x="1280" y="495" width="30" height="60" as="geometry" />
        </mxCell>
        <mxCell id="BAt-kX5z2OFKXPIR_hLi-69" value="Quản lý đơn hàng" style="ellipse;whiteSpace=wrap;html=1;" vertex="1" parent="WIyWlLk6GJQsqaUBKTNV-1">
          <mxGeometry x="1070" y="410" width="120" height="50" as="geometry" />
        </mxCell>
        <mxCell id="BAt-kX5z2OFKXPIR_hLi-81" style="rounded=0;orthogonalLoop=1;jettySize=auto;html=1;exitX=0;exitY=0.5;exitDx=0;exitDy=0;dashed=1;entryX=1;entryY=1;entryDx=0;entryDy=0;endArrow=blockThin;endFill=1;" edge="1" parent="WIyWlLk6GJQsqaUBKTNV-1" source="BAt-kX5z2OFKXPIR_hLi-71" target="BAt-kX5z2OFKXPIR_hLi-32">
          <mxGeometry relative="1" as="geometry">
            <mxPoint x="861" y="602" as="targetPoint" />
          </mxGeometry>
        </mxCell>
        <mxCell id="BAt-kX5z2OFKXPIR_hLi-113" value="&amp;lt;&amp;lt;include&amp;gt;&amp;gt;" style="edgeLabel;html=1;align=center;verticalAlign=middle;resizable=0;points=[];" connectable="0" vertex="1" parent="BAt-kX5z2OFKXPIR_hLi-81">
          <mxGeometry x="0.1969" relative="1" as="geometry">
            <mxPoint x="18" y="4" as="offset" />
          </mxGeometry>
        </mxCell>
        <mxCell id="BAt-kX5z2OFKXPIR_hLi-71" value="Quản lý nhân viên" style="ellipse;whiteSpace=wrap;html=1;" vertex="1" parent="WIyWlLk6GJQsqaUBKTNV-1">
          <mxGeometry x="1070" y="640" width="120" height="50" as="geometry" />
        </mxCell>
        <mxCell id="BAt-kX5z2OFKXPIR_hLi-82" style="rounded=0;orthogonalLoop=1;jettySize=auto;html=1;exitX=0;exitY=0.5;exitDx=0;exitDy=0;entryX=0.5;entryY=1;entryDx=0;entryDy=0;dashed=1;endArrow=blockThin;endFill=1;" edge="1" parent="WIyWlLk6GJQsqaUBKTNV-1" source="BAt-kX5z2OFKXPIR_hLi-72" target="BAt-kX5z2OFKXPIR_hLi-32">
          <mxGeometry relative="1" as="geometry" />
        </mxCell>
        <mxCell id="BAt-kX5z2OFKXPIR_hLi-114" value="&amp;lt;&amp;lt;include&amp;gt;&amp;gt;" style="edgeLabel;html=1;align=center;verticalAlign=middle;resizable=0;points=[];" connectable="0" vertex="1" parent="BAt-kX5z2OFKXPIR_hLi-82">
          <mxGeometry x="0.1257" y="1" relative="1" as="geometry">
            <mxPoint as="offset" />
          </mxGeometry>
        </mxCell>
        <mxCell id="BAt-kX5z2OFKXPIR_hLi-72" value="quản lý sản phẩm" style="ellipse;whiteSpace=wrap;html=1;" vertex="1" parent="WIyWlLk6GJQsqaUBKTNV-1">
          <mxGeometry x="840" y="810" width="120" height="50" as="geometry" />
        </mxCell>
        <mxCell id="BAt-kX5z2OFKXPIR_hLi-73" value="Thống kê, báo cáo" style="ellipse;whiteSpace=wrap;html=1;" vertex="1" parent="WIyWlLk6GJQsqaUBKTNV-1">
          <mxGeometry x="1070" y="570" width="120" height="50" as="geometry" />
        </mxCell>
        <mxCell id="BAt-kX5z2OFKXPIR_hLi-80" style="rounded=0;orthogonalLoop=1;jettySize=auto;html=1;exitX=0;exitY=0.5;exitDx=0;exitDy=0;entryX=1;entryY=0;entryDx=0;entryDy=0;dashed=1;endArrow=blockThin;endFill=1;" edge="1" parent="WIyWlLk6GJQsqaUBKTNV-1" source="BAt-kX5z2OFKXPIR_hLi-69" target="BAt-kX5z2OFKXPIR_hLi-32">
          <mxGeometry relative="1" as="geometry" />
        </mxCell>
        <mxCell id="BAt-kX5z2OFKXPIR_hLi-111" value="&amp;lt;&amp;lt;include&amp;gt;&amp;gt;" style="edgeLabel;html=1;align=center;verticalAlign=middle;resizable=0;points=[];" connectable="0" vertex="1" parent="BAt-kX5z2OFKXPIR_hLi-80">
          <mxGeometry x="-0.0512" y="-2" relative="1" as="geometry">
            <mxPoint as="offset" />
          </mxGeometry>
        </mxCell>
        <mxCell id="BAt-kX5z2OFKXPIR_hLi-83" style="rounded=0;orthogonalLoop=1;jettySize=auto;html=1;exitX=0;exitY=0.5;exitDx=0;exitDy=0;entryX=0.957;entryY=0.689;entryDx=0;entryDy=0;entryPerimeter=0;dashed=1;endArrow=blockThin;endFill=1;" edge="1" parent="WIyWlLk6GJQsqaUBKTNV-1" source="BAt-kX5z2OFKXPIR_hLi-73" target="BAt-kX5z2OFKXPIR_hLi-32">
          <mxGeometry relative="1" as="geometry" />
        </mxCell>
        <mxCell id="BAt-kX5z2OFKXPIR_hLi-115" value="&amp;lt;&amp;lt;include&amp;gt;&amp;gt;" style="edgeLabel;html=1;align=center;verticalAlign=middle;resizable=0;points=[];" connectable="0" vertex="1" parent="BAt-kX5z2OFKXPIR_hLi-83">
          <mxGeometry x="-0.0897" y="1" relative="1" as="geometry">
            <mxPoint as="offset" />
          </mxGeometry>
        </mxCell>
        <mxCell id="BAt-kX5z2OFKXPIR_hLi-87" style="rounded=0;orthogonalLoop=1;jettySize=auto;html=1;exitX=1;exitY=1;exitDx=0;exitDy=0;entryX=0.273;entryY=0.048;entryDx=0;entryDy=0;endArrow=block;endFill=0;entryPerimeter=0;" edge="1" parent="WIyWlLk6GJQsqaUBKTNV-1" source="BAt-kX5z2OFKXPIR_hLi-85" target="BAt-kX5z2OFKXPIR_hLi-69">
          <mxGeometry relative="1" as="geometry" />
        </mxCell>
        <mxCell id="BAt-kX5z2OFKXPIR_hLi-85" value="Quản lý đơn nhập" style="ellipse;whiteSpace=wrap;html=1;" vertex="1" parent="WIyWlLk6GJQsqaUBKTNV-1">
          <mxGeometry x="970" y="330" width="120" height="50" as="geometry" />
        </mxCell>
        <mxCell id="BAt-kX5z2OFKXPIR_hLi-86" value="Quản lý đơn giao" style="ellipse;whiteSpace=wrap;html=1;" vertex="1" parent="WIyWlLk6GJQsqaUBKTNV-1">
          <mxGeometry x="1160" y="330" width="120" height="50" as="geometry" />
        </mxCell>
        <mxCell id="BAt-kX5z2OFKXPIR_hLi-88" style="rounded=0;orthogonalLoop=1;jettySize=auto;html=1;exitX=0;exitY=1;exitDx=0;exitDy=0;entryX=0.5;entryY=0;entryDx=0;entryDy=0;endArrow=block;endFill=0;" edge="1" parent="WIyWlLk6GJQsqaUBKTNV-1" source="BAt-kX5z2OFKXPIR_hLi-86" target="BAt-kX5z2OFKXPIR_hLi-69">
          <mxGeometry relative="1" as="geometry" />
        </mxCell>
        <mxCell id="BAt-kX5z2OFKXPIR_hLi-92" style="rounded=0;orthogonalLoop=1;jettySize=auto;html=1;exitX=0.5;exitY=1;exitDx=0;exitDy=0;entryX=0.322;entryY=0.033;entryDx=0;entryDy=0;dashed=1;entryPerimeter=0;endArrow=blockThin;endFill=1;" edge="1" parent="WIyWlLk6GJQsqaUBKTNV-1" source="BAt-kX5z2OFKXPIR_hLi-89" target="BAt-kX5z2OFKXPIR_hLi-85">
          <mxGeometry relative="1" as="geometry" />
        </mxCell>
        <mxCell id="BAt-kX5z2OFKXPIR_hLi-94" value="&amp;lt;&amp;lt;extend&amp;gt;&amp;gt;" style="edgeLabel;html=1;align=center;verticalAlign=middle;resizable=0;points=[];" connectable="0" vertex="1" parent="BAt-kX5z2OFKXPIR_hLi-92">
          <mxGeometry x="-0.0307" y="1" relative="1" as="geometry">
            <mxPoint x="-1" as="offset" />
          </mxGeometry>
        </mxCell>
        <mxCell id="BAt-kX5z2OFKXPIR_hLi-89" value="Tạo đơn nhập" style="ellipse;whiteSpace=wrap;html=1;" vertex="1" parent="WIyWlLk6GJQsqaUBKTNV-1">
          <mxGeometry x="887" y="200" width="120" height="50" as="geometry" />
        </mxCell>
        <mxCell id="BAt-kX5z2OFKXPIR_hLi-90" value="Xem đơn nhập" style="ellipse;whiteSpace=wrap;html=1;" vertex="1" parent="WIyWlLk6GJQsqaUBKTNV-1">
          <mxGeometry x="1050" y="200" width="120" height="50" as="geometry" />
        </mxCell>
        <mxCell id="BAt-kX5z2OFKXPIR_hLi-93" style="rounded=0;orthogonalLoop=1;jettySize=auto;html=1;exitX=0.5;exitY=1;exitDx=0;exitDy=0;entryX=0.655;entryY=0.076;entryDx=0;entryDy=0;entryPerimeter=0;dashed=1;endArrow=blockThin;endFill=1;" edge="1" parent="WIyWlLk6GJQsqaUBKTNV-1" source="BAt-kX5z2OFKXPIR_hLi-90" target="BAt-kX5z2OFKXPIR_hLi-85">
          <mxGeometry relative="1" as="geometry" />
        </mxCell>
        <mxCell id="BAt-kX5z2OFKXPIR_hLi-95" value="&amp;lt;&amp;lt;extend&amp;gt;&amp;gt;" style="edgeLabel;html=1;align=center;verticalAlign=middle;resizable=0;points=[];" connectable="0" vertex="1" parent="BAt-kX5z2OFKXPIR_hLi-93">
          <mxGeometry x="-0.2304" y="1" relative="1" as="geometry">
            <mxPoint as="offset" />
          </mxGeometry>
        </mxCell>
        <mxCell id="BAt-kX5z2OFKXPIR_hLi-98" style="rounded=0;orthogonalLoop=1;jettySize=auto;html=1;exitX=0.5;exitY=0;exitDx=0;exitDy=0;entryX=0.5;entryY=1;entryDx=0;entryDy=0;dashed=1;endArrow=blockThin;endFill=1;" edge="1" parent="WIyWlLk6GJQsqaUBKTNV-1" source="BAt-kX5z2OFKXPIR_hLi-96" target="BAt-kX5z2OFKXPIR_hLi-71">
          <mxGeometry relative="1" as="geometry" />
        </mxCell>
        <mxCell id="BAt-kX5z2OFKXPIR_hLi-100" value="&amp;lt;&amp;lt;extend&amp;gt;&amp;gt;" style="edgeLabel;html=1;align=center;verticalAlign=middle;resizable=0;points=[];" connectable="0" vertex="1" parent="BAt-kX5z2OFKXPIR_hLi-98">
          <mxGeometry x="-0.3319" y="1" relative="1" as="geometry">
            <mxPoint as="offset" />
          </mxGeometry>
        </mxCell>
        <mxCell id="BAt-kX5z2OFKXPIR_hLi-96" value="Thêm nhân viên" style="ellipse;whiteSpace=wrap;html=1;" vertex="1" parent="WIyWlLk6GJQsqaUBKTNV-1">
          <mxGeometry x="1000" y="750" width="120" height="50" as="geometry" />
        </mxCell>
        <mxCell id="BAt-kX5z2OFKXPIR_hLi-97" value="Cập nhật nhân viên" style="ellipse;whiteSpace=wrap;html=1;" vertex="1" parent="WIyWlLk6GJQsqaUBKTNV-1">
          <mxGeometry x="1160" y="750" width="120" height="50" as="geometry" />
        </mxCell>
        <mxCell id="BAt-kX5z2OFKXPIR_hLi-99" style="rounded=0;orthogonalLoop=1;jettySize=auto;html=1;exitX=0.5;exitY=0;exitDx=0;exitDy=0;entryX=1;entryY=1;entryDx=0;entryDy=0;dashed=1;endArrow=blockThin;endFill=1;" edge="1" parent="WIyWlLk6GJQsqaUBKTNV-1" source="BAt-kX5z2OFKXPIR_hLi-97" target="BAt-kX5z2OFKXPIR_hLi-71">
          <mxGeometry relative="1" as="geometry" />
        </mxCell>
        <mxCell id="BAt-kX5z2OFKXPIR_hLi-101" value="&amp;lt;&amp;lt;extend&amp;gt;&amp;gt;" style="edgeLabel;html=1;align=center;verticalAlign=middle;resizable=0;points=[];" connectable="0" vertex="1" parent="BAt-kX5z2OFKXPIR_hLi-99">
          <mxGeometry x="-0.0943" y="-1" relative="1" as="geometry">
            <mxPoint as="offset" />
          </mxGeometry>
        </mxCell>
        <mxCell id="BAt-kX5z2OFKXPIR_hLi-105" value="" style="rounded=0;orthogonalLoop=1;jettySize=auto;html=1;dashed=1;endArrow=blockThin;endFill=1;" edge="1" parent="WIyWlLk6GJQsqaUBKTNV-1" source="BAt-kX5z2OFKXPIR_hLi-102" target="BAt-kX5z2OFKXPIR_hLi-72">
          <mxGeometry relative="1" as="geometry" />
        </mxCell>
        <mxCell id="BAt-kX5z2OFKXPIR_hLi-108" value="&amp;lt;&amp;lt;extend&amp;gt;&amp;gt;" style="edgeLabel;html=1;align=center;verticalAlign=middle;resizable=0;points=[];" connectable="0" vertex="1" parent="BAt-kX5z2OFKXPIR_hLi-105">
          <mxGeometry x="-0.004" y="1" relative="1" as="geometry">
            <mxPoint as="offset" />
          </mxGeometry>
        </mxCell>
        <mxCell id="BAt-kX5z2OFKXPIR_hLi-102" value="Cập nhật sản phẩm" style="ellipse;whiteSpace=wrap;html=1;" vertex="1" parent="WIyWlLk6GJQsqaUBKTNV-1">
          <mxGeometry x="940" y="900" width="120" height="50" as="geometry" />
        </mxCell>
        <mxCell id="BAt-kX5z2OFKXPIR_hLi-106" value="Thêm sản phẩm" style="ellipse;whiteSpace=wrap;html=1;" vertex="1" parent="WIyWlLk6GJQsqaUBKTNV-1">
          <mxGeometry x="750" y="920" width="120" height="50" as="geometry" />
        </mxCell>
        <mxCell id="BAt-kX5z2OFKXPIR_hLi-107" style="rounded=0;orthogonalLoop=1;jettySize=auto;html=1;exitX=0.5;exitY=0;exitDx=0;exitDy=0;entryX=0;entryY=1;entryDx=0;entryDy=0;dashed=1;endArrow=blockThin;endFill=1;" edge="1" parent="WIyWlLk6GJQsqaUBKTNV-1" source="BAt-kX5z2OFKXPIR_hLi-106" target="BAt-kX5z2OFKXPIR_hLi-72">
          <mxGeometry relative="1" as="geometry" />
        </mxCell>
        <mxCell id="BAt-kX5z2OFKXPIR_hLi-109" value="&amp;lt;&amp;lt;extend&amp;gt;&amp;gt;" style="edgeLabel;html=1;align=center;verticalAlign=middle;resizable=0;points=[];" connectable="0" vertex="1" parent="BAt-kX5z2OFKXPIR_hLi-107">
          <mxGeometry x="0.1906" y="4" relative="1" as="geometry">
            <mxPoint as="offset" />
          </mxGeometry>
        </mxCell>
        <mxCell id="BAt-kX5z2OFKXPIR_hLi-119" style="edgeStyle=orthogonalEdgeStyle;rounded=0;orthogonalLoop=1;jettySize=auto;html=1;exitX=0.5;exitY=1;exitDx=0;exitDy=0;" edge="1" parent="WIyWlLk6GJQsqaUBKTNV-1" source="BAt-kX5z2OFKXPIR_hLi-47" target="BAt-kX5z2OFKXPIR_hLi-47">
          <mxGeometry relative="1" as="geometry" />
        </mxCell>
        <mxCell id="-BmHojvlKjboQncOSD9x-9" style="rounded=0;orthogonalLoop=1;jettySize=auto;html=1;exitX=0;exitY=0;exitDx=0;exitDy=0;entryX=1;entryY=0.5;entryDx=0;entryDy=0;endArrow=none;endFill=0;dashed=1;startArrow=blockThin;startFill=1;" edge="1" parent="WIyWlLk6GJQsqaUBKTNV-1" source="-BmHojvlKjboQncOSD9x-7" target="BAt-kX5z2OFKXPIR_hLi-5">
          <mxGeometry relative="1" as="geometry" />
        </mxCell>
        <mxCell id="-BmHojvlKjboQncOSD9x-11" value="&amp;lt;&amp;lt;extend&amp;gt;&amp;gt;" style="edgeLabel;html=1;align=center;verticalAlign=middle;resizable=0;points=[];" connectable="0" vertex="1" parent="-BmHojvlKjboQncOSD9x-9">
          <mxGeometry x="0.044" y="1" relative="1" as="geometry">
            <mxPoint as="offset" />
          </mxGeometry>
        </mxCell>
        <mxCell id="-BmHojvlKjboQncOSD9x-7" value="Mua ngay" style="ellipse;whiteSpace=wrap;html=1;" vertex="1" parent="WIyWlLk6GJQsqaUBKTNV-1">
          <mxGeometry x="660" y="440" width="120" height="50" as="geometry" />
        </mxCell>
        <mxCell id="-BmHojvlKjboQncOSD9x-10" style="rounded=0;orthogonalLoop=1;jettySize=auto;html=1;exitX=1;exitY=1;exitDx=0;exitDy=0;entryX=0.337;entryY=0.065;entryDx=0;entryDy=0;entryPerimeter=0;dashed=1;endArrow=blockThin;endFill=1;" edge="1" parent="WIyWlLk6GJQsqaUBKTNV-1" source="-BmHojvlKjboQncOSD9x-7" target="BAt-kX5z2OFKXPIR_hLi-32">
          <mxGeometry relative="1" as="geometry" />
        </mxCell>
        <mxCell id="-BmHojvlKjboQncOSD9x-12" value="&amp;lt;&amp;lt;include&amp;gt;&amp;gt;" style="edgeLabel;html=1;align=center;verticalAlign=middle;resizable=0;points=[];" connectable="0" vertex="1" parent="-BmHojvlKjboQncOSD9x-10">
          <mxGeometry x="-0.1869" y="2" relative="1" as="geometry">
            <mxPoint as="offset" />
          </mxGeometry>
        </mxCell>
      </root>
    </mxGraphModel>
  </diagram>
</mxfile>
